# xmcd
#
# Track frame offsets: 
#        150
#        19205
#        39788
#        56492
#        74695
#        90839
#        111212
#        132702
#        153103
#        169555
#        186372
#        205357
#        222670
#        244107
#        260813
#        278402
#        295928
#
# Disc length: 4187 seconds
#
# Revision: 3
# Processed by: cddbd v1.5.2PL0 Copyright (c) Steve Scherf et al.
# Submitted via: ExactAudioCopy v1.3
#
DISCID=fd105911
DTITLE=張敬軒 - 是時候 CD2
DYEAR=2013
DGENRE=Pop
TTITLE0=張敬軒 and 孫耀威 - 義不容情
TTITLE1=留低鎖匙
TTITLE2=故園花茶
TTITLE3=披星戴月
TTITLE4=相對論
TTITLE5=單打獨鬥
TTITLE6=失戀有獎
TTITLE7=無名指的光環
TTITLE8=曝光[Dance Version]
TTITLE9=他的故事
TTITLE10=櫻花樹下
TTITLE11=夜宴
TTITLE12=不吐不快
TTITLE13=張敬軒 and Rihanna - Hate That I Love You
TTITLE14=吻得太逼真
TTITLE15=酷愛
TTITLE16=迷失表參道
EXTD=
EXTT0=
EXTT1=
EXTT2=
EXTT3=
EXTT4=
EXTT5=
EXTT6=
EXTT7=
EXTT8=
EXTT9=
EXTT10=
EXTT11=
EXTT12=
EXTT13=
EXTT14=
EXTT15=
EXTT16=
PLAYORDER=
